<?xml version="1.0" encoding="UTF-8"?>
<!DOCTYPE svg PUBLIC "-//W3C//DTD SVG 1.1//EN" "http://www.w3.org/Graphics/SVG/1.1/DTD/svg11.dtd">
<!-- Creator: CorelDRAW -->
<svg xmlns="http://www.w3.org/2000/svg" xml:space="preserve" width="2048px" height="2048px" style="shape-rendering:geometricPrecision; text-rendering:geometricPrecision; image-rendering:optimizeQuality; fill-rule:evenodd; clip-rule:evenodd"
viewBox="0 0 2048 2048"
 xmlns:xlink="http://www.w3.org/1999/xlink">
 <defs>

 </defs>
 <g id="Layer_x0020_1">
  <metadata id="CorelCorpID_0Corel-Layer"/>
  <g id="_475130544">
   <path id="_475130880" class="fil0" d="M703.086 1106.97l641.829 0c13.2543,0 24,10.7457 24,24l0 309.03c0,13.2543 -10.7457,24 -24,24l-641.829 0c-13.2543,0 -24,-10.7457 -24,-24l0 -309.03c0,-13.2543 10.7457,-24 24,-24zm617.829 48l-593.829 0 0 261.03 593.829 0 0 -261.03z"/>
   <path id="_475130688" class="fil0" d="M750.4 1032.74c0,13.2543 10.7457,24 24,24 13.2543,0 24,-10.7457 24,-24l0 -175.138c0,-62.015 25.3878,-118.412 66.2882,-159.312 40.9004,-40.9004 97.2969,-66.2882 159.312,-66.2882l0.0011811 0c62.0138,0 118.41,25.3878 159.311,66.2894 40.9016,40.9004 66.2894,97.2969 66.2894,159.311l0 273.372c0,13.2543 10.7457,24 24,24 13.2543,0 24,-10.7457 24,-24l0 -273.372c0,-75.2646 -30.7736,-143.672 -80.3516,-193.249 -49.5768,-49.578 -117.984,-80.3516 -193.249,-80.3516l-0.0011811 0c-75.2646,0 -143.673,30.7736 -193.25,80.3505 -49.5768,49.5768 -80.3505,117.985 -80.3505,193.25l0 175.138z"/>
   <path id="_475130472" class="fil1" d="M1024 1206.8c20.5358,0 37.1835,16.6477 37.1835,37.1847 0,12.9567 -6.62835,24.3626 -16.6772,31.0193l0 89.1721 -41.0114 0 0 -89.1709c-10.05,-6.6567 -16.6784,-18.0638 -16.6784,-31.0205 0,-20.537 16.6477,-37.1847 37.1835,-37.1847z"/>
  </g>
  <path class="fil2" d="M1024 255.999c212.075,0 404.076,85.9619 543.057,224.943 138.982,138.982 224.943,330.982 224.943,543.057 0,212.075 -85.9619,404.076 -224.943,543.057 -138.982,138.982 -330.982,224.943 -543.057,224.943 -212.075,0 -404.076,-85.9619 -543.057,-224.943 -138.982,-138.982 -224.943,-330.982 -224.943,-543.057 0,-212.075 85.9619,-404.076 224.943,-543.057 138.982,-138.982 330.982,-224.943 543.057,-224.943zm509.119 258.881c-130.292,-130.292 -310.295,-210.881 -509.119,-210.881 -198.825,0 -378.827,80.589 -509.119,210.881 -130.292,130.292 -210.881,310.295 -210.881,509.119 0,198.825 80.589,378.827 210.881,509.119 130.292,130.292 310.295,210.881 509.119,210.881 198.825,0 378.827,-80.589 509.119,-210.881 130.292,-130.292 210.881,-310.295 210.881,-509.119 0,-198.825 -80.589,-378.827 -210.881,-509.119z"/>
 </g>
 <rect class="fil3" width="2048" height="2048"/>
</svg>
